<svg width="100" height="100" viewBox="0 0 100 100" fill="none" xmlns="http://www.w3.org/2000/svg">
<g id="image">
<path id="Vector" fill-rule="evenodd" clip-rule="evenodd" d="M11 18C14.866 18 18 14.866 18 11C18 7.134 14.866 4 11 4C7.134 4 4 7.134 4 11C4 14.866 7.134 18 11 18ZM59 43C62.866 43 66 39.866 66 36C66 32.134 62.866 29 59 29C55.134 29 52 32.134 52 36C52 39.866 55.134 43 59 43ZM16 36C17.657 36 19 34.657 19 33C19 31.343 17.657 30 16 30C14.343 30 13 31.343 13 33C13 34.657 14.343 36 16 36ZM79 67C80.657 67 82 65.657 82 64C82 62.343 80.657 61 79 61C77.343 61 76 62.343 76 64C76 65.657 77.343 67 79 67ZM34 90C35.657 90 37 88.657 37 87C37 85.343 35.657 84 34 84C32.343 84 31 85.343 31 87C31 88.657 32.343 90 34 90ZM90 14C91.657 14 93 12.657 93 11C93 9.343 91.657 8 90 8C88.343 8 87 9.343 87 11C87 12.657 88.343 14 90 14ZM12 86C14.21 86 16 84.21 16 82C16 79.79 14.21 78 12 78C9.79 78 8 79.79 8 82C8 84.21 9.79 86 12 86ZM40 21C42.21 21 44 19.21 44 17C44 14.79 42.21 13 40 13C37.79 13 36 14.79 36 17C36 19.21 37.79 21 40 21ZM63 10C65.76 10 68 7.76 68 5C68 2.24 65.76 0 63 0C60.24 0 58 2.24 58 5C58 7.76 60.24 10 63 10ZM57 70C59.21 70 61 68.21 61 66C61 63.79 59.21 62 57 62C54.79 62 53 63.79 53 66C53 68.21 54.79 70 57 70ZM86 92C88.76 92 91 89.76 91 87C91 84.24 88.76 82 86 82C83.24 82 81 84.24 81 87C81 89.76 83.24 92 86 92ZM32 63C34.76 63 37 60.76 37 58C37 55.24 34.76 53 32 53C29.24 53 27 55.24 27 58C27 60.76 29.24 63 32 63ZM89 50C91.76 50 94 47.76 94 45C94 42.24 91.76 40 89 40C86.24 40 84 42.24 84 45C84 47.76 86.24 50 89 50ZM80 29C81.105 29 82 28.105 82 27C82 25.895 81.105 25 80 25C78.895 25 78 25.895 78 27C78 28.105 78.895 29 80 29ZM60 91C61.105 91 62 90.105 62 89C62 87.895 61.105 87 60 87C58.895 87 58 87.895 58 89C58 90.105 58.895 91 60 91ZM35 41C36.105 41 37 40.105 37 39C37 37.895 36.105 37 35 37C33.895 37 33 37.895 33 39C33 40.105 33.895 41 35 41ZM12 60C13.105 60 14 59.105 14 58C14 56.895 13.105 56 12 56C10.895 56 10 56.895 10 58C10 59.105 10.895 60 12 60Z" fill="white" fill-opacity="0.03"/>
</g>
</svg>
