<svg width="15" height="15" viewBox="0 0 15 15" fill="none" xmlns="http://www.w3.org/2000/svg">
<path d="M8 3.99628C9.96875 3.99628 11.5938 5.62128 11.5938 7.59003C11.5938 9.59003 9.96875 11.1838 8 11.1838C6 11.1838 4.40625 9.59003 4.40625 7.59003C4.40625 5.62128 6 3.99628 8 3.99628ZM8 9.93378C9.28125 9.93378 10.3125 8.90253 10.3125 7.59003C10.3125 6.30878 9.28125 5.27753 8 5.27753C6.6875 5.27753 5.65625 6.30878 5.65625 7.59003C5.65625 8.90253 6.71875 9.93378 8 9.93378ZM12.5625 3.87128C12.5625 4.34003 12.1875 4.71503 11.7188 4.71503C11.25 4.71503 10.875 4.34003 10.875 3.87128C10.875 3.40253 11.25 3.02753 11.7188 3.02753C12.1875 3.02753 12.5625 3.40253 12.5625 3.87128ZM14.9375 4.71503C15 5.87128 15 9.34003 14.9375 10.4963C14.875 11.6213 14.625 12.59 13.8125 13.4338C13 14.2463 12 14.4963 10.875 14.5588C9.71875 14.6213 6.25 14.6213 5.09375 14.5588C3.96875 14.4963 3 14.2463 2.15625 13.4338C1.34375 12.59 1.09375 11.6213 1.03125 10.4963C0.96875 9.34003 0.96875 5.87128 1.03125 4.71503C1.09375 3.59003 1.34375 2.59003 2.15625 1.77753C3 0.965027 3.96875 0.715027 5.09375 0.652527C6.25 0.590027 9.71875 0.590027 10.875 0.652527C12 0.715027 13 0.965027 13.8125 1.77753C14.625 2.59003 14.875 3.59003 14.9375 4.71503ZM13.4375 11.715C13.8125 10.8088 13.7188 8.62128 13.7188 7.59003C13.7188 6.59003 13.8125 4.40253 13.4375 3.46503C13.1875 2.87128 12.7188 2.37128 12.125 2.15253C11.1875 1.77753 9 1.87128 8 1.87128C6.96875 1.87128 4.78125 1.77753 3.875 2.15253C3.25 2.40253 2.78125 2.87128 2.53125 3.46503C2.15625 4.40253 2.25 6.59003 2.25 7.59003C2.25 8.62128 2.15625 10.8088 2.53125 11.715C2.78125 12.34 3.25 12.8088 3.875 13.0588C4.78125 13.4338 6.96875 13.34 8 13.34C9 13.34 11.1875 13.4338 12.125 13.0588C12.7188 12.8088 13.2188 12.34 13.4375 11.715Z" fill="#CCCCCC"/>
</svg>
