<svg width="14" height="15" viewBox="0 0 14 15" fill="none" xmlns="http://www.w3.org/2000/svg">
<path d="M3.125 14.59H0.21875V5.24628H3.125V14.59ZM1.65625 3.99628C0.75 3.99628 0 3.21503 0 2.27753C0 1.37128 0.75 0.621277 1.65625 0.621277C2.59375 0.621277 3.34375 1.37128 3.34375 2.27753C3.34375 3.21503 2.59375 3.99628 1.65625 3.99628ZM13.9688 14.59H11.0938V10.0588C11.0938 8.96503 11.0625 7.59003 9.5625 7.59003C8.0625 7.59003 7.84375 8.74628 7.84375 9.96503V14.59H4.9375V5.24628H7.71875V6.52753H7.75C8.15625 5.80878 9.09375 5.02753 10.5 5.02753C13.4375 5.02753 14 6.96503 14 9.46503V14.59H13.9688Z" fill="#CCCCCC"/>
</svg>
