<svg width="16" height="14" viewBox="0 0 16 14" fill="none" xmlns="http://www.w3.org/2000/svg">
<path d="M14.3438 3.34003C14.3438 3.49628 14.3438 3.62128 14.3438 3.77753C14.3438 8.12128 11.0625 13.09 5.03125 13.09C3.15625 13.09 1.4375 12.5588 0 11.6213C0.25 11.6525 0.5 11.6838 0.78125 11.6838C2.3125 11.6838 3.71875 11.1525 4.84375 10.2775C3.40625 10.2463 2.1875 9.30878 1.78125 7.99628C2 8.02753 2.1875 8.05878 2.40625 8.05878C2.6875 8.05878 3 7.99628 3.25 7.93378C1.75 7.62128 0.625 6.30878 0.625 4.71503V4.68378C1.0625 4.93378 1.59375 5.05878 2.125 5.09003C1.21875 4.49628 0.65625 3.49628 0.65625 2.37128C0.65625 1.74628 0.8125 1.18378 1.09375 0.715027C2.71875 2.68378 5.15625 3.99628 7.875 4.15253C7.8125 3.90253 7.78125 3.65253 7.78125 3.40253C7.78125 1.59003 9.25 0.121277 11.0625 0.121277C12 0.121277 12.8438 0.496277 13.4688 1.15253C14.1875 0.996277 14.9062 0.715027 15.5312 0.340027C15.2812 1.12128 14.7812 1.74628 14.0938 2.15253C14.75 2.09003 15.4062 1.90253 15.9688 1.65253C15.5312 2.30878 14.9688 2.87128 14.3438 3.34003Z" fill="#CCCCCC"/>
</svg>
